<svg xmlns="http://www.w3.org/2000/svg" xmlns:xlink="http://www.w3.org/1999/xlink" viewBox="0 0 791.87 254.09">
  <defs>
    <linearGradient id="linear-gradient" x1="145.64" y1="-1365.53" x2="-18.15" y2="-1608.18" gradientTransform="matrix(1, 0, 0, -1, 0, -1372.32)" gradientUnits="userSpaceOnUse">
      <stop offset="0.37" stop-color="#ec2527"/>
      <stop offset="1" stop-color="#b3268a"/>
    </linearGradient>
  </defs>
  <title>Recurso 1</title>
  <g id="Capa_2" data-name="Capa 2">
    <g id="Capa_1-2" data-name="Capa 1">
      <g>
        <g id="Layer_2" data-name="Layer 2">
          <g id="Layer_1-2" data-name="Layer 1-2">
            <path d="M162,150.7a151.41,151.41,0,0,0-45.08-106A153.25,153.25,0,0,0,7.87,0H0V7.8C0,52.08,36.31,88.15,81.05,88.15c36.11,0,65.17,29.08,65.17,64.6s-29.34,64.6-65.17,64.6c-36.11,0-65.17-29.08-65.17-64.6h0a40.73,40.73,0,0,1,40.87-40.51A41.27,41.27,0,0,1,82,120.86h-.83a32,32,0,1,0,32.31,32h0v-1.64A56.29,56.29,0,0,0,55.16,96.91c-30.58,1-54.81,25.73-54.81,56,0,44.14,36.31,80.34,81.05,80.34s81-36,81-80.34A3.81,3.81,0,0,1,162,150.7ZM81.12,72.48A65.31,65.31,0,0,1,16.36,15.81a138.69,138.69,0,0,1,114.33,73.5A81.88,81.88,0,0,0,81.12,72.48Zm16.5,80.41A16.43,16.43,0,1,1,81.19,136.6h0a16.23,16.23,0,0,1,16.43,16.29Z" style="fill: url(#linear-gradient)"/>
          </g>
        </g>
        <g>
          <g>
            <path d="M409.65,166.28v-14.1h57v14.1Zm21.21,63.62V158.54h14.59V229.9Z" style="fill: #010101"/>
            <path d="M473,229.9V152.18h15.72V229.9Zm5.86-31.19V185.12H506a6.39,6.39,0,0,0,5.49-2.62,12.58,12.58,0,0,0,0-14A6.39,6.39,0,0,0,506,165.9H478.88V152.18h28.2a20.73,20.73,0,0,1,11.22,2.87,19.5,19.5,0,0,1,7.49,8.11,25.77,25.77,0,0,1,2.62,12.22,27.44,27.44,0,0,1-2.62,12.23,18.75,18.75,0,0,1-7.49,8.11,21,21,0,0,1-11.22,2.87Zm35.18,31.19-18.83-33.68,15.59-2.5,21,36.18Z" style="fill: #010101"/>
            <path d="M536.14,229.9l29.69-77.72h9.23l29.69,77.72H590.41l-20-55.76-20,55.76Zm14.22-12.48V203.83h40.92v13.59Z" style="fill: #010101"/>
            <path d="M628.08,229.9l-25.82-77.72h15.09l16.47,51.9,16.47-51.77h15.09L639.56,230H628.08Z" style="fill: #010101"/>
            <path d="M674.36,229.9V152.18H689V229.9Zm5.37-63.62v-14.1h46.78v14.1Zm0,28.32V180.5h40.91v14.1Zm0,35.3V216.43h46.78V230Z" style="fill: #010101"/>
            <path d="M739.73,229.9V152.18h14.59V229.9Zm6.61,0V215.8h45.53v14.1Z" style="fill: #010101"/>
          </g>
          <g>
            <path d="M215.17,131.75V52.31h14.89v79.44Zm5.6-65.14V52.16h47.9V66.61Zm0,29V81.2h41.86V95.64Zm0,36.11V117.89h47.9v13.86Z" style="fill: #010101"/>
            <path d="M282.23,131.75V52.46H300.5l29.62,60.87-1.32,1.47V52.61h14.44v79.28H324.82l-29.48-60,1.33-1.47v61.31Z" style="fill: #010101"/>
            <path d="M360.48,131.75V52.31H376v79.44Zm6.93-32v-15h46.27V99.62Zm36.11,32V52.31h15.62v79.44Z" style="fill: #010101"/>
            <path d="M428.72,131.75l30.36-79.44h9.43l30.36,79.44H484.13l-20.34-57-20.34,57Zm14.73-12.82V105.07h41.86v13.86Z" style="fill: #010101"/>
            <path d="M508.89,131.75V52.46h18.27l29.62,60.87-1.32,1.47V52.61h14.29v79.28H551.33l-29.47-60,1.32-1.47v61.31Z" style="fill: #010101"/>
            <path d="M614.26,132.63a33.92,33.92,0,0,1-15.62-3.39,24.09,24.09,0,0,1-9.88-10,35.44,35.44,0,0,1-3.38-16.06v-22a35.49,35.49,0,0,1,3.38-16.07,23.26,23.26,0,0,1,9.88-10,31.88,31.88,0,0,1,15.62-3.39A26.61,26.61,0,0,1,627.67,55a26.07,26.07,0,0,1,9.73,9.44,41.16,41.16,0,0,1,5.3,14.73H627.08a22.32,22.32,0,0,0-2.65-6.77A12.33,12.33,0,0,0,620,68.08a11.7,11.7,0,0,0-5.9-1.47c-4.27,0-7.51,1.32-9.87,3.83s-3.39,6.19-3.39,10.9v21.82c0,4.56,1.18,8.25,3.39,10.9s5.6,3.83,9.87,3.83a11.86,11.86,0,0,0,8.26-2.94,14.44,14.44,0,0,0,4.56-8.4h15.63a35,35,0,0,1-5.31,14.29,25.9,25.9,0,0,1-9.73,9A32.79,32.79,0,0,1,614.26,132.63Z" style="fill: #010101"/>
            <path d="M656.41,131.75V52.31h14.88v79.44Zm5.45-65.14V52.16h47.9V66.61Zm0,29V81.2h41.86V95.64Zm0,36.11V117.89h47.9v13.86Z" style="fill: #010101"/>
          </g>
          <g>
            <path d="M215.38,138.33a8.1,8.1,0,0,1,4.74,4c.94,2.13,1.54,3,1.89,5.09a23.89,23.89,0,0,1,.59,9.72,44.52,44.52,0,0,1-4.5,19.43,49.31,49.31,0,0,1-9.48,14,17.8,17.8,0,0,1-5.45,4.86,5,5,0,0,1-.71.83l-.24.35a1.52,1.52,0,0,0,.72-.12c.47-.11.94-.11,1.89-.35h5.93c6.16.47,6.87.95,9.83,2.13,1.19.95,1.78.95,2.13,1.78,1.9,2.61,2.61,3.2,2.61,5.21.59,3-.71,7.35-3,11.61-4.62,8.65-14.58,17-25.83,23.58a20.81,20.81,0,0,0-5.33,3c-1,.47-1.54.83-2.14,1.18a2.14,2.14,0,0,1-.71.47c-.71.6-.71,1.19-.71,2.14a44.53,44.53,0,0,1-1.3,5.92c-.71,0-.71.59-.95.59-.47,0-2.84.36-3.44.36s-1.54-2-1.77-4.86a1.27,1.27,0,0,0-.36-.83l-.35-.35c-.24.12-.36.23-.6.35a6.21,6.21,0,0,1-1.3.59,96,96,0,0,1-30.45,5.1h-3.79c-8.3-.36-14.81-1.78-18.72-3.79a13.83,13.83,0,0,1-5.69-4.74c-.71-.36-2.49-4.86-2.49-5.1s0-.11.12-.11a1.25,1.25,0,0,1,.71-.24,22.33,22.33,0,0,1,4.86-2.61c.71,0,.71.36.94,1.3.6.36,1,.72,1,1.31a39.43,39.43,0,0,0,11,2c2.61.36,8.18,0,11.73-.23a114.89,114.89,0,0,0,17.42-2.73c.95-.36,4.62-1.18,8.18-2.49L179,235l-.47-4.74V213.09c-.48-18-.36-27-.95-36a69.26,69.26,0,0,1,0-14c0-1.78,0-2.37.59-3.08s1-.95,1-1.42l.95-.71.23.47c.95.71.95,1.19,2.26,2.37,3,5.1,4,10.43,5.8,20.62.24,4.38.95,7.82.95,11.25a8.26,8.26,0,0,0,.12,1.78l.12.83,1.89-1.18a34.87,34.87,0,0,0,3.2-2.26c4-3.55,5.1-4.26,8.41-7.58a19.68,19.68,0,0,0,3.91-4.86c1.9-4.26,4.27-7.94,5.57-12.2,1.54-3.79,2.25-5.33,2.61-10.43a39.78,39.78,0,0,0,.47-8.17c-.35-3.44-.47-3.32-1.54-4h-1.66a6.12,6.12,0,0,0-3.67,2.49c-1.3,1.18-2.25,2.6-4.15,5.45-1.77,2.6-1.77,2.6-2.13,4.74-1.3,4.26-2.13,5.68-3,10-.24,2-1.3,4.74-1.3,5.45a44.65,44.65,0,0,0-1.66,4.27,55.39,55.39,0,0,1-1.9,5.92c-.24,1.78-.95,3.44-.95,3.79h-4.5v-1.78a113.41,113.41,0,0,1,.95-20,47.87,47.87,0,0,1,2.61-9.12c.94-2.49,1.65-2.61,2.6-5.1,2.25-3.67,3.2-5.09,5.1-6.75a26.62,26.62,0,0,1,8.77-5.22h6.16v-.23ZM208,204.44H190.38v7c0,7,0,12.8-.71,17.42v1.42l.59-.11a3.38,3.38,0,0,1,1.06-.24,148.26,148.26,0,0,0,21.21-13.75,42.84,42.84,0,0,0,7.23-9.83v-.83l-.59-.95h-1.3a14,14,0,0,0-3.44-.24A42.21,42.21,0,0,0,208,204.44Z" style="fill: #010101"/>
            <path d="M225.09,234l.71-5c1.66-.95,3.8-.47,5.45-1.42v-1c0-4.62-.94-9.48-.94-14.22,0-13.27,1.66-40.76,6.63-52.73l-5.92.72c-1.07-.72-1.78-3.2-2.25-4.51.94-2.25,15.87-3.55,18-3.55a3.71,3.71,0,0,1,2.48.59l-1.3,4.27c-.59.59-5,1.77-5.45,1.54,0,22.63-5,45.26-5,68,.95,0,4-.12,3.68.95l-.24,4.14c-2.61,1.54-9.72,2.14-12.56,2.14Z" style="fill: #010101"/>
            <path d="M285.05,244.14l.95,2,.11.36c.95-.12,1.43-.6,2.37-.48l.6,1.54-.71,2.49c-1.54.59-2.85,1.54-4.51,1.54-1.3,0-5.33-2.72-6.39-3.79l.94-.47-.71-.24c-8.17-12.21-11.25-25-17.42-37.92-.35,4-.23,23.35-3.79,23.35-.83,0-2.6,1.89-3.43,2.36-5.93-3.67-5.69-22.51-5.69-28.91,0-8.17,3.32-51.54,7.7-55.57l4.62.71c1.54,9.84.71,20.74.24,30.81.95-.36,15.4-22.87,17.89-22.87A13.46,13.46,0,0,1,281,161c0,.95-.95,1.66-1.54,2.6-1.54,2.61-3.32,5.1-4.86,7.59-1.3,2.37-12.68,19.55-13,19.79,9,17.06,18.13,34.83,23.34,53.32Z" style="fill: #010101"/>
            <path d="M280.55,234l.71-5c1.66-.95,3.79-.47,5.45-1.42v-1c0-4.62-.95-9.48-.95-14.22,0-13.27,1.66-40.76,6.63-52.73l-5.92.72c-1.07-.72-1.78-3.2-2.25-4.51.95-2.25,15.88-3.55,18-3.55a3.74,3.74,0,0,1,2.49.59l-1.31,4.27c-.59.59-5,1.77-5.33,1.54,0,22.63-5,45.26-5,68,.94,0,4-.12,3.79.95l-.48,4c-2.6,1.54-9.71,2.13-12.56,2.13Z" style="fill: #010101"/>
            <path d="M301.87,220.2c0-18.36,4.15-36.61,8.42-54.38a9.65,9.65,0,0,1,2.48-.71l1.55.35c4.26,3.32,10.42,28.56,12.91,34.6l3.08,9,.59,2,.12.35v-.35l.24-1.78c.95-9.6.71-19.08,1.89-28.79,1-8.06,5.93-37,10-42.66a45.09,45.09,0,0,1,8.88.71c-1.65,17.18-9.59,71-14.69,88-1.18,3.44-2.72,2.49-6,2.49,0-.24-9-26.42-10.07-29a123.53,123.53,0,0,1-4.86-17.18l-.36-2.37c0-.24,0-.36-.11-.36v.71a77,77,0,0,1-.48,9.25c-1.3,14.1-5.09,29.26-5.09,43.24H311a4.49,4.49,0,0,1,1.54.48c.12,1.54-1.31,3-2.37,4H309a7.46,7.46,0,0,1-3.2-.48C302.11,232.41,301.87,226.25,301.87,220.2Z" style="fill: #010101"/>
            <path d="M374,237.38c0-4,2.37-13.39,3.68-17.06-4,7.11-6.76,14-16.35,14-13,0-15.17-17.65-15.17-27.25,0-15.17,10.43-55.45,30-55.45,1.18,0,3.43.47,4.38,1.54v.71c-1.54.35-3,.71-4.38,1-11.26,11.61-16,46.8-16,62.68,0,2.49-.24,12.08,3.44,12.08,4.26-.95,10.19-22.27,11.49-26.06l.36-.24c-1.9-.36-4-.12-5.93-.36l-.59-1.06.83-2.49c4.26-1.19,10.9-.95,15.28-.95,3.2,0,4.27,1.42,4.27,4.5,0,14.1-5.57,29.74-7.82,44.08l1.54.36-1,2a6.16,6.16,0,0,1-3.44,1.3C373.91,250.89,374,240.46,374,237.38Z" style="fill: #010101"/>
          </g>
        </g>
      </g>
    </g>
  </g>
</svg>
