<svg xmlns="http://www.w3.org/2000/svg" xmlns:xlink="http://www.w3.org/1999/xlink" viewBox="0 0 162.45 233.23">
  <defs>
    <linearGradient id="linear-gradient" x1="145.64" y1="88.3" x2="-18.15" y2="-154.35" gradientTransform="matrix(1, 0, 0, -1, 0, 81.51)" gradientUnits="userSpaceOnUse">
      <stop offset="0.37" stop-color="#ec2527"/>
      <stop offset="1" stop-color="#b3268a"/>
    </linearGradient>
  </defs>
  <title>Recurso 2</title>
  <g id="Capa_2" data-name="Capa 2">
    <g id="Capa_1-2" data-name="Capa 1">
      <g id="Layer_2" data-name="Layer 2">
        <g id="Layer_1-2" data-name="Layer 1-2">
          <path d="M162,150.7a151.41,151.41,0,0,0-45.08-106A153.25,153.25,0,0,0,7.87,0H0V7.8C0,52.08,36.31,88.15,81.05,88.15c36.11,0,65.17,29.08,65.17,64.6s-29.34,64.6-65.17,64.6c-36.11,0-65.17-29.08-65.17-64.6h0a40.73,40.73,0,0,1,40.87-40.51A41.27,41.27,0,0,1,82,120.86h-.83a32,32,0,1,0,32.31,32h0v-1.64A56.29,56.29,0,0,0,55.16,96.91c-30.58,1-54.81,25.73-54.81,56,0,44.14,36.31,80.34,81.05,80.34s81-36,81-80.34A3.81,3.81,0,0,1,162,150.7ZM81.12,72.48A65.31,65.31,0,0,1,16.36,15.81a138.69,138.69,0,0,1,114.33,73.5A81.88,81.88,0,0,0,81.12,72.48Zm16.5,80.41A16.43,16.43,0,1,1,81.19,136.6h0a16.23,16.23,0,0,1,16.43,16.29Z" style="fill: url(#linear-gradient)"/>
        </g>
      </g>
    </g>
  </g>
</svg>
