<svg xmlns="http://www.w3.org/2000/svg" viewBox="0 0 410.25 410.25">
  <title>Recurso 1</title>
  <g id="Capa_2" data-name="Capa 2">
    <g id="Capa_1-2" data-name="Capa 1">
      <circle cx="205.13" cy="205.13" r="205.13" style="fill: #00af87"/>
      <g>
        <path d="M222.44,269.74c-5.85,8.83-11.65,17.57-17.62,26.59l-17.55-26.5-1.63,1.81c-18.22,20.78-41,30.85-68.47,29.14-37.09-2.31-68.29-29.91-75.44-66.7-4.53-23.27,0-44.81,13.38-64.36a3.88,3.88,0,0,0,.59-3.67c-3.05-10.41-8.1-19.82-14.07-28.78-.42-.64-.85-1.27-1.54-2.32h2.42c15.79,0,31.57,0,47.35-.06a6.73,6.73,0,0,0,3.46-1c20.4-13,42.58-21.33,66.2-26a233.24,233.24,0,0,1,62.67-3.65c32.74,2.4,63.42,11.58,91.39,29.33a6.43,6.43,0,0,0,3.28.93q25.25.09,50.48,0c.76,0,1.52,0,2.7,0-.54.84-.91,1.45-1.31,2.05-6.1,9.2-11.36,18.8-14.37,29.55a3.67,3.67,0,0,0,.65,3.47,82.47,82.47,0,0,1,15.16,51.14c-1.32,39.21-29.47,72.47-67.69,79.15C271.2,305.37,245,295.32,224,271.29c-.32-.37-.61-.76-.93-1.13A4.63,4.63,0,0,0,222.44,269.74Zm126.67-52c.07-36.72-29.42-66.62-65.86-66.77s-66.05,29.77-66.11,66.92c0,36.61,29.63,66.63,66,66.71S349,254.73,349.11,217.79Zm-292.38-.25c0,36.67,29.66,66.68,66,66.74s66.14-30.06,66.1-66.8-29.56-66.6-66-66.7S56.72,180.73,56.73,217.54Zm148.3-11c8.62-42.65,34.46-67.17,77.76-72.78-14.7-8.46-50.14-15.43-78.14-15.35-26.4.08-70.9,8.84-78.22,15.4C165.46,135.08,200.84,167.1,205,206.51Z" style="fill: #020202"/>
        <path d="M328.17,216.85c0,22.75-18.46,41.32-40.93,41.24s-40.69-18.65-40.72-41.28,18.4-41.34,40.86-41.33S328.2,194.06,328.17,216.85Zm-14.08,0a26.75,26.75,0,1,0-26.87,27A26.83,26.83,0,0,0,314.09,216.87Z" style="fill: #020202"/>
        <path d="M121.66,175.48c22.5,0,40.87,18.55,40.86,41.31s-18.31,41.25-40.68,41.3-40.94-18.52-41-41.22S99.19,175.5,121.66,175.48Zm.06,14.26a27.06,27.06,0,1,0,26.71,27.07A26.89,26.89,0,0,0,121.72,189.74Z" style="fill: #020202"/>
        <path d="M299.67,220.29c-1.49.51-2.17,1.83-2.48,3.79-.16,1-1.68,2-2.78,2.53-2.11,1.09-4.58,1.34-6.38,3.23a2.78,2.78,0,0,1-2.75-.32c-1.27-1.75-2.61-2.19-4.16-1.16-1.85-2.5-3.56-4.8-5.49-7.38.67-1,.26-2.09-.94-3.46-.57-.65-.14-2.39.15-3.55.24-1,.93-1.84,1.24-2.83l2.13-3.11c1.34-.72,2.72-1.54,4.17-2.2a22.38,22.38,0,0,1,3.31-1.06c1.13-.33,2.26-.63,3.41-.86a2,2,0,0,1,1.42.12c2,1.7,4,3.43,5.84,5.24s2.4,4,2.62,6.44C299.1,217.18,299.41,218.63,299.67,220.29Z" style="fill: #020202"/>
        <path d="M121.66,230.24c-7.54,0-13.24-5.86-13.34-13.49a13.4,13.4,0,0,1,13.35-13.59C129,203,135,209.25,135,216.76A13.19,13.19,0,0,1,121.66,230.24Z" style="fill: #020202"/>
      </g>
    </g>
  </g>
</svg>
